<svg width="50" height="50" viewBox="0 0 50 50" fill="none" xmlns="http://www.w3.org/2000/svg">
<path d="M30.2082 22.9167C30.2082 24.298 29.6594 25.6228 28.6827 26.5995C27.7059 27.5763 26.3812 28.125 24.9998 28.125C23.6185 28.125 22.2937 27.5763 21.317 26.5995C20.3402 25.6228 19.7915 24.298 19.7915 22.9167C19.7915 21.5353 20.3402 20.2106 21.317 19.2338C22.2937 18.2571 23.6185 17.7083 24.9998 17.7083C26.3812 17.7083 27.7059 18.2571 28.6827 19.2338C29.6594 20.2106 30.2082 21.5353 30.2082 22.9167Z" stroke="#2563EB" stroke-width="1.5" stroke-linecap="round" stroke-linejoin="round"/>
<path d="M45.8332 27.0833V12.3479C45.8332 11.1646 45.1582 10.0937 44.0269 9.74375C42.0623 9.13125 38.4978 8.33333 33.3332 8.33333C23.7915 8.33333 21.2436 11.8271 8.079 9.21666C6.08525 8.82083 4.1665 10.3021 4.1665 12.3333V33.2021C4.1665 34.6354 5.15192 35.8958 6.55192 36.2042C17.479 38.6146 21.5248 37.075 27.0832 36.1687" stroke="#2563EB" stroke-width="1.5" stroke-linecap="round" stroke-linejoin="round"/>
<path d="M4.1665 16.6667C8.23109 16.6667 11.8853 13.3438 12.3519 9.90417M38.5415 9.375C38.5415 13.625 42.2186 17.6438 45.8332 17.6438M12.4998 36.45C12.4998 34.2399 11.6219 32.1202 10.0591 30.5574C8.49626 28.9946 6.37664 28.1167 4.1665 28.1167M39.5832 29.1667V41.6667M33.3332 35.4167H45.8332" stroke="#2563EB" stroke-width="1.5" stroke-linecap="round" stroke-linejoin="round"/>
</svg>
