<svg width="20" height="20" viewBox="0 0 20 20" fill="none" xmlns="http://www.w3.org/2000/svg">
<path d="M10 0.25C8.07164 0.25 6.18657 0.821828 4.58319 1.89317C2.97982 2.96451 1.73013 4.48726 0.992179 6.26884C0.254225 8.05042 0.061142 10.0108 0.437348 11.9021C0.813554 13.7934 1.74215 15.5307 3.10571 16.8943C4.46928 18.2579 6.20656 19.1865 8.09787 19.5627C9.98919 19.9389 11.9496 19.7458 13.7312 19.0078C15.5127 18.2699 17.0355 17.0202 18.1068 15.4168C19.1782 13.8134 19.75 11.9284 19.75 10C19.7473 7.41498 18.7192 4.93661 16.8913 3.10872C15.0634 1.28084 12.585 0.25273 10 0.25ZM13.5925 7H14.5C14.6989 7 14.8897 7.07902 15.0303 7.21967C15.171 7.36032 15.25 7.55109 15.25 7.75C15.25 7.94891 15.171 8.13968 15.0303 8.28033C14.8897 8.42098 14.6989 8.5 14.5 8.5H13.7322C13.6374 9.52423 13.1639 10.4762 12.4043 11.1698C11.6447 11.8634 10.6536 12.2485 9.625 12.25H8.43625L13.4603 16.1584C13.5418 16.2175 13.6106 16.2923 13.6626 16.3785C13.7146 16.4647 13.7487 16.5605 13.7629 16.6602C13.7771 16.7599 13.771 16.8613 13.7452 16.9586C13.7193 17.0559 13.6741 17.147 13.6123 17.2264C13.5505 17.3059 13.4733 17.3721 13.3853 17.4211C13.2974 17.47 13.2005 17.5008 13.1004 17.5116C13.0003 17.5223 12.8991 17.5128 12.8028 17.4836C12.7064 17.4544 12.617 17.4061 12.5397 17.3416L5.78969 12.0916C5.66652 11.9956 5.57638 11.8635 5.53186 11.7138C5.48733 11.5642 5.49064 11.4043 5.54132 11.2566C5.59201 11.1089 5.68753 10.9807 5.81458 10.8899C5.94162 10.799 6.09384 10.7502 6.25 10.75H9.625C10.2562 10.7499 10.8662 10.5225 11.3433 10.1092C11.8204 9.696 12.1326 9.1247 12.2228 8.5H6.25C6.05109 8.5 5.86033 8.42098 5.71967 8.28033C5.57902 8.13968 5.5 7.94891 5.5 7.75C5.5 7.55109 5.57902 7.36032 5.71967 7.21967C5.86033 7.07902 6.05109 7 6.25 7H11.9959C11.7831 6.5513 11.4474 6.17219 11.0277 5.90668C10.608 5.64116 10.1216 5.50015 9.625 5.5H6.25C6.05109 5.5 5.86033 5.42098 5.71967 5.28033C5.57902 5.13968 5.5 4.94891 5.5 4.75C5.5 4.55109 5.57902 4.36032 5.71967 4.21967C5.86033 4.07902 6.05109 4 6.25 4H14.5C14.6989 4 14.8897 4.07902 15.0303 4.21967C15.171 4.36032 15.25 4.55109 15.25 4.75C15.25 4.94891 15.171 5.13968 15.0303 5.28033C14.8897 5.42098 14.6989 5.5 14.5 5.5H12.805C13.1687 5.93998 13.4369 6.4508 13.5925 7Z" fill="#2563EB"/>
</svg>
