<svg width="44" height="44" viewBox="0 0 44 44" fill="none" xmlns="http://www.w3.org/2000/svg">
<rect x="1" y="1" width="42" height="42" rx="9" fill="white" stroke="#2563EB" stroke-width="2"/>
<path fill-rule="evenodd" clip-rule="evenodd" d="M12.25 31C12.25 30.8011 12.329 30.6103 12.4697 30.4697C12.6103 30.329 12.8011 30.25 13 30.25H31C31.1989 30.25 31.3897 30.329 31.5303 30.4697C31.671 30.6103 31.75 30.8011 31.75 31C31.75 31.1989 31.671 31.3897 31.5303 31.5303C31.3897 31.671 31.1989 31.75 31 31.75H13C12.8011 31.75 12.6103 31.671 12.4697 31.5303C12.329 31.3897 12.25 31.1989 12.25 31Z" fill="#2563EB"/>
<path d="M17.5 21.25H14.5C14.0858 21.25 13.75 21.5858 13.75 22V31C13.75 31.4142 14.0858 31.75 14.5 31.75H17.5C17.9142 31.75 18.25 31.4142 18.25 31V22C18.25 21.5858 17.9142 21.25 17.5 21.25Z" fill="#2563EB"/>
<path d="M23.5 12.25H20.5C20.0858 12.25 19.75 12.5858 19.75 13V31C19.75 31.4142 20.0858 31.75 20.5 31.75H23.5C23.9142 31.75 24.25 31.4142 24.25 31V13C24.25 12.5858 23.9142 12.25 23.5 12.25Z" fill="#2563EB"/>
<path d="M29.5 16.75H26.5C26.0858 16.75 25.75 17.0858 25.75 17.5V31C25.75 31.4142 26.0858 31.75 26.5 31.75H29.5C29.9142 31.75 30.25 31.4142 30.25 31V17.5C30.25 17.0858 29.9142 16.75 29.5 16.75Z" fill="#2563EB"/>
</svg>
