<svg width="26" height="28" viewBox="0 0 26 28" fill="none" xmlns="http://www.w3.org/2000/svg">
<path fill-rule="evenodd" clip-rule="evenodd" d="M13.0293 0.5C9.64155 0.5 6.5553 1.619 4.72905 2.53325C4.56405 2.61575 4.41005 2.69625 4.26705 2.77475C3.98355 2.92925 3.74205 3.07325 3.55005 3.2L5.62755 6.2585L6.60555 6.64775C10.4275 8.576 15.553 8.576 19.3758 6.64775L20.4858 6.07175L22.45 3.2C22.0427 2.93533 21.6197 2.69564 21.1833 2.48225C19.366 1.57775 16.3533 0.5 13.03 0.5M8.19855 3.962C7.46305 3.82359 6.7365 3.64126 6.0228 3.416C7.73355 2.65625 10.2828 1.85 13.03 1.85C14.9328 1.85 16.732 2.237 18.22 2.7275C16.4763 2.97275 14.6155 3.389 12.8425 3.90125C11.4475 4.30475 9.81705 4.26125 8.19855 3.962ZM20.1685 7.76L19.984 7.853C15.7795 9.974 10.2025 9.974 5.99805 7.853L5.8233 7.7645C-0.493952 14.6953 -5.31645 27.4978 13.0293 27.4978C31.375 27.4978 26.4355 14.4575 20.1685 7.76ZM12.25 14C11.8522 14 11.4707 14.158 11.1894 14.4393C10.9081 14.7206 10.75 15.1022 10.75 15.5C10.75 15.8978 10.9081 16.2794 11.1894 16.5607C11.4707 16.842 11.8522 17 12.25 17V14ZM13.75 12.5V11.75H12.25V12.5C11.4544 12.5 10.6913 12.8161 10.1287 13.3787C9.56612 13.9413 9.25005 14.7044 9.25005 15.5C9.25005 16.2956 9.56612 17.0587 10.1287 17.6213C10.6913 18.1839 11.4544 18.5 12.25 18.5V21.5C11.5975 21.5 11.0418 21.0837 10.8348 20.5002C10.8041 20.4048 10.7545 20.3165 10.6891 20.2405C10.6236 20.1645 10.5436 20.1024 10.4538 20.0579C10.3639 20.0134 10.266 19.9873 10.1659 19.9813C10.0658 19.9753 9.96554 19.9894 9.87098 20.0228C9.77643 20.0562 9.68954 20.1082 9.61544 20.1758C9.54135 20.2434 9.48156 20.3251 9.43961 20.4162C9.39766 20.5073 9.3744 20.6059 9.37121 20.7061C9.36803 20.8063 9.38497 20.9062 9.42105 20.9998C9.62783 21.5848 10.0109 22.0913 10.5176 22.4496C11.0243 22.8078 11.6295 23.0001 12.25 23V23.75H13.75V23C14.5457 23 15.3088 22.6839 15.8714 22.1213C16.434 21.5587 16.75 20.7956 16.75 20C16.75 19.2044 16.434 18.4413 15.8714 17.8787C15.3088 17.3161 14.5457 17 13.75 17V14C14.4025 14 14.9583 14.4163 15.1653 14.9998C15.196 15.0952 15.2456 15.1835 15.311 15.2595C15.3764 15.3355 15.4565 15.3976 15.5463 15.4421C15.6362 15.4866 15.7341 15.5127 15.8342 15.5187C15.9343 15.5247 16.0346 15.5106 16.1291 15.4772C16.2237 15.4438 16.3106 15.3918 16.3847 15.3242C16.4587 15.2566 16.5185 15.1749 16.5605 15.0838C16.6024 14.9927 16.6257 14.8941 16.6289 14.7939C16.6321 14.6937 16.6151 14.5938 16.579 14.5002C16.3723 13.9152 15.9892 13.4087 15.4825 13.0504C14.9758 12.6922 14.3706 12.4999 13.75 12.5ZM13.75 18.5V21.5C14.1479 21.5 14.5294 21.342 14.8107 21.0607C15.092 20.7794 15.25 20.3978 15.25 20C15.25 19.6022 15.092 19.2206 14.8107 18.9393C14.5294 18.658 14.1479 18.5 13.75 18.5Z" fill="#2563EB"/>
</svg>
