<svg width="36" height="36" viewBox="0 0 36 36" fill="none" xmlns="http://www.w3.org/2000/svg">
<g clip-path="url(#clip0_203_369)">
<path d="M35.6399 3.00449C35.6399 1.79249 34.6574 0.808491 33.4454 0.808491H2.71344C2.13123 0.767913 1.55674 0.960282 1.11635 1.34328C0.675972 1.72627 0.405771 2.26852 0.365193 2.85074C0.324615 3.43296 0.516983 4.00745 0.89998 4.44783C1.28298 4.88821 1.82523 5.15841 2.40744 5.19899C2.493 5.215 2.57032 5.26028 2.62615 5.32706C2.68198 5.39383 2.71284 5.47795 2.71344 5.56499V26.784C2.71518 26.8696 2.68687 26.9531 2.63343 27.0199C2.57999 27.0868 2.5048 27.1328 2.42094 27.15C2.03794 27.1948 1.68788 27.3883 1.4462 27.6887C1.20452 27.9892 1.09059 28.3726 1.12896 28.7563C1.16733 29.14 1.35493 29.4933 1.65132 29.7399C1.94771 29.9866 2.32916 30.1069 2.71344 30.075H16.6169C16.8179 30.075 16.9814 30.24 16.9814 30.4425V30.8955C16.9828 30.9561 16.9687 31.0161 16.9407 31.0698C16.9126 31.1236 16.8714 31.1694 16.8209 31.203C16.4386 31.4707 16.1515 31.8532 16.0015 32.2952C15.8514 32.7371 15.8462 33.2154 15.9865 33.6605C16.1268 34.1057 16.4054 34.4945 16.7818 34.7705C17.1581 35.0465 17.6127 35.1953 18.0794 35.1953C18.5462 35.1953 19.0007 35.0465 19.3771 34.7705C19.7535 34.4945 20.0321 34.1057 20.1724 33.6605C20.3127 33.2154 20.3075 32.7371 20.1574 32.2952C20.0074 31.8532 19.7203 31.4707 19.3379 31.203C19.2875 31.1694 19.2463 31.1236 19.2182 31.0698C19.1902 31.0161 19.1761 30.9561 19.1774 30.8955V30.4425C19.1774 30.24 19.3409 30.0765 19.5434 30.0765H33.4454C33.8335 30.1153 34.2211 29.9983 34.523 29.7513C34.8248 29.5043 35.0162 29.1476 35.0549 28.7595C35.0937 28.3714 34.9768 27.9838 34.7298 27.682C34.4828 27.3801 34.126 27.1888 33.7379 27.15C33.6541 27.1328 33.5789 27.0868 33.5255 27.0199C33.472 26.9531 33.4437 26.8696 33.4454 26.784V5.53499C33.4476 5.44831 33.4792 5.36495 33.5351 5.29868C33.591 5.23241 33.6679 5.18719 33.7529 5.17049C34.2757 5.09746 34.7545 4.83809 35.1012 4.44011C35.4479 4.04213 35.6392 3.53232 35.6399 3.00449ZM30.5189 26.784C30.5189 26.985 30.3539 27.15 30.1529 27.15H6.00744C5.91037 27.15 5.81728 27.1114 5.74864 27.0428C5.68 26.9742 5.64144 26.8811 5.64144 26.784V5.56499C5.64144 5.36249 5.80494 5.19899 6.00744 5.19899H30.1529C30.3539 5.19899 30.5189 5.36399 30.5189 5.56499V26.784Z" fill="#2563EB"/>
<path d="M13.3228 24.222C13.3318 24.825 13.8179 25.3125 14.4209 25.32H28.3228C28.6068 25.3095 28.8757 25.1893 29.0729 24.9847C29.2701 24.7801 29.3803 24.5069 29.3803 24.2228C29.3803 23.9386 29.2701 23.6655 29.0729 23.4608C28.8757 23.2562 28.6068 23.136 28.3228 23.1255H27.2248C27.128 23.1251 27.0353 23.0864 26.967 23.0178C26.8987 22.9492 26.8603 22.8563 26.8603 22.7595V16.1745C26.8603 15.7862 26.7061 15.4139 26.4316 15.1393C26.157 14.8648 25.7846 14.7105 25.3963 14.7105H23.9323C23.7402 14.7105 23.5499 14.7484 23.3723 14.822C23.1948 14.8956 23.0335 15.0034 22.8977 15.1394C22.7618 15.2754 22.6542 15.4368 22.5807 15.6144C22.5073 15.792 22.4697 15.9823 22.4698 16.1745V22.7595C22.4698 22.962 22.3048 23.1255 22.1038 23.1255H20.6398C20.5428 23.1255 20.4497 23.0869 20.381 23.0183C20.3124 22.9497 20.2738 22.8566 20.2738 22.7595V20.565C20.2738 20.177 20.1198 19.8048 19.8456 19.5303C19.5714 19.2558 19.1994 19.1014 18.8113 19.101H17.3473C16.9593 19.1014 16.5873 19.2558 16.3131 19.5303C16.0389 19.8048 15.8848 20.177 15.8848 20.565V22.7595C15.8848 22.962 15.7198 23.1255 15.5188 23.1255H14.4209C14.1309 23.1286 13.8536 23.2451 13.6484 23.45C13.4432 23.6549 13.3264 23.932 13.3228 24.222ZM15.1529 16.5405C15.1799 15.9682 15.0595 15.3985 14.8031 14.886C14.5468 14.3736 14.1631 13.9356 13.6888 13.614L10.9528 11.8575C10.8942 11.8161 10.8463 11.7613 10.8132 11.6976C10.78 11.634 10.7626 11.5633 10.7624 11.4915C10.7661 11.3761 10.8136 11.2665 10.8952 11.1849C10.9769 11.1033 11.0865 11.0558 11.2018 11.052H13.6888C14.0769 11.052 14.449 10.898 14.7235 10.6237C14.998 10.3495 15.1525 9.97753 15.1529 9.58951C15.1585 9.24292 15.041 8.90556 14.8213 8.63747C14.6015 8.36939 14.2938 8.18797 13.9528 8.12551C13.8808 8.11081 13.8146 8.07525 13.7626 8.02324C13.7106 7.97123 13.675 7.90508 13.6603 7.83301C13.5979 7.49205 13.4165 7.18431 13.1484 6.96457C12.8803 6.74482 12.5429 6.62733 12.1963 6.63301C11.8441 6.63724 11.5052 6.76833 11.2418 7.00225C10.9784 7.23617 10.8082 7.55723 10.7624 7.90651C10.7571 7.9814 10.7269 8.05237 10.6766 8.1081C10.6263 8.16384 10.5588 8.20112 10.4848 8.21401C7.95435 8.71501 6.91785 11.7705 8.62035 13.71C8.82035 13.938 9.04685 14.135 9.29985 14.301L11.9923 16.086C12.1498 16.1805 12.2413 16.356 12.2263 16.5405C12.2222 16.6556 12.1746 16.7649 12.093 16.8462C12.0114 16.9275 11.902 16.9748 11.7868 16.9785H9.29985C8.91157 16.9785 8.5392 17.1328 8.26465 17.4073C7.99009 17.6819 7.83585 18.0542 7.83585 18.4425C7.82385 19.158 8.33085 19.7775 9.03585 19.9065C9.18285 19.9365 9.29685 20.052 9.32835 20.199C9.39193 20.5394 9.57366 20.8465 9.84149 21.066C10.1093 21.2856 10.4461 21.4035 10.7923 21.399C11.1475 21.4021 11.4916 21.276 11.7607 21.0442C12.0298 20.8124 12.2054 20.4907 12.2548 20.139C12.262 20.0647 12.293 19.9947 12.3433 19.9395C12.3936 19.8843 12.4605 19.847 12.5338 19.833C13.2821 19.6684 13.9509 19.2512 14.4278 18.6517C14.9047 18.0521 15.1608 17.3066 15.1529 16.5405Z" fill="#2563EB"/>
</g>
<defs>
<clipPath id="clip0_203_369">
<rect width="36" height="36" fill="white"/>
</clipPath>
</defs>
</svg>
