<svg width="20" height="21" viewBox="0 0 20 21" fill="none" xmlns="http://www.w3.org/2000/svg">
<path d="M10 11.9L12.9 14.8C13.0833 14.9833 13.3167 15.075 13.6 15.075C13.8833 15.075 14.1167 14.9833 14.3 14.8C14.4833 14.6167 14.575 14.3833 14.575 14.1C14.575 13.8167 14.4833 13.5833 14.3 13.4L11.4 10.5L14.3 7.6C14.4833 7.41667 14.575 7.18333 14.575 6.9C14.575 6.61667 14.4833 6.38333 14.3 6.2C14.1167 6.01667 13.8833 5.925 13.6 5.925C13.3167 5.925 13.0833 6.01667 12.9 6.2L10 9.1L7.1 6.2C6.91667 6.01667 6.68333 5.925 6.4 5.925C6.11667 5.925 5.88333 6.01667 5.7 6.2C5.51667 6.38333 5.425 6.61667 5.425 6.9C5.425 7.18333 5.51667 7.41667 5.7 7.6L8.6 10.5L5.7 13.4C5.51667 13.5833 5.425 13.8167 5.425 14.1C5.425 14.3833 5.51667 14.6167 5.7 14.8C5.88333 14.9833 6.11667 15.075 6.4 15.075C6.68333 15.075 6.91667 14.9833 7.1 14.8L10 11.9ZM10 20.5C8.61667 20.5 7.31667 20.2373 6.1 19.712C4.88334 19.1867 3.825 18.4743 2.925 17.575C2.025 16.6757 1.31267 15.6173 0.788001 14.4C0.263335 13.1827 0.000667933 11.8827 1.26582e-06 10.5C-0.000665401 9.11733 0.262001 7.81733 0.788001 6.6C1.314 5.38267 2.02633 4.32433 2.925 3.425C3.82367 2.52567 4.882 1.81333 6.1 1.288C7.318 0.762667 8.618 0.5 10 0.5C11.382 0.5 12.682 0.762667 13.9 1.288C15.118 1.81333 16.1763 2.52567 17.075 3.425C17.9737 4.32433 18.6863 5.38267 19.213 6.6C19.7397 7.81733 20.002 9.11733 20 10.5C19.998 11.8827 19.7353 13.1827 19.212 14.4C18.6887 15.6173 17.9763 16.6757 17.075 17.575C16.1737 18.4743 15.1153 19.187 13.9 19.713C12.6847 20.239 11.3847 20.5013 10 20.5ZM10 18.5C12.2333 18.5 14.125 17.725 15.675 16.175C17.225 14.625 18 12.7333 18 10.5C18 8.26667 17.225 6.375 15.675 4.825C14.125 3.275 12.2333 2.5 10 2.5C7.76667 2.5 5.875 3.275 4.325 4.825C2.775 6.375 2 8.26667 2 10.5C2 12.7333 2.775 14.625 4.325 16.175C5.875 17.725 7.76667 18.5 10 18.5Z" fill="#FF0000"/>
</svg>
