<svg width="22" height="22" viewBox="0 0 22 22" fill="none" xmlns="http://www.w3.org/2000/svg">
<path d="M10.021 0.713232C10.6418 0.430225 11.3585 0.430225 11.9793 0.713232L21.0877 4.85581C21.4418 5.01577 21.6668 5.3644 21.6668 5.74995C21.6668 6.1355 21.4418 6.48413 21.0877 6.64409L11.9793 10.7867C11.3585 11.0697 10.6418 11.0697 10.021 10.7867L0.912663 6.64409C0.558496 6.48003 0.333496 6.1314 0.333496 5.74995C0.333496 5.36851 0.558496 5.01577 0.912663 4.85581L10.021 0.713232ZM18.871 9.09683L21.0877 10.1058C21.4418 10.2658 21.6668 10.6144 21.6668 11C21.6668 11.3855 21.4418 11.7341 21.0877 11.8941L11.9793 16.0367C11.3585 16.3197 10.6418 16.3197 10.021 16.0367L0.912663 11.8941C0.558496 11.73 0.333496 11.3814 0.333496 11C0.333496 10.6185 0.558496 10.2658 0.912663 10.1058L3.12933 9.09683L9.46266 11.9761C9.94473 12.195 10.4693 12.3083 11.0002 12.3083C11.531 12.3083 12.0556 12.195 12.5377 11.9761L18.871 9.09683ZM12.5377 17.2261L18.871 14.3468L21.0877 15.3558C21.4418 15.5158 21.6668 15.8644 21.6668 16.25C21.6668 16.6355 21.4418 16.9841 21.0877 17.1441L11.9793 21.2867C11.3585 21.5697 10.6418 21.5697 10.021 21.2867L0.912663 17.1441C0.558496 16.98 0.333496 16.6314 0.333496 16.25C0.333496 15.8685 0.558496 15.5158 0.912663 15.3558L3.12933 14.3468L9.46266 17.2261C9.94473 17.445 10.4693 17.5583 11.0002 17.5583C11.531 17.5583 12.0556 17.445 12.5377 17.2261Z" fill="#2563EB"/>
</svg>
