<svg width="21" height="20" viewBox="0 0 21 20" fill="none" xmlns="http://www.w3.org/2000/svg">
<path d="M9.56169 0.203125C10.1567 -0.0664062 10.8435 -0.0664062 11.4384 0.203125L20.1672 4.14844C20.5067 4.30078 20.7223 4.63281 20.7223 5C20.7223 5.36719 20.5067 5.69922 20.1672 5.85156L11.4384 9.79688C10.8435 10.0664 10.1567 10.0664 9.56169 9.79688L0.832867 5.85156C0.493457 5.69531 0.277832 5.36328 0.277832 5C0.277832 4.63672 0.493457 4.30078 0.832867 4.14844L9.56169 0.203125ZM18.0429 8.1875L20.1672 9.14844C20.5067 9.30078 20.7223 9.63281 20.7223 10C20.7223 10.3672 20.5067 10.6992 20.1672 10.8516L11.4384 14.7969C10.8435 15.0664 10.1567 15.0664 9.56169 14.7969L0.832867 10.8516C0.493457 10.6953 0.277832 10.3633 0.277832 10C0.277832 9.63672 0.493457 9.30078 0.832867 9.14844L2.95717 8.1875L9.02662 10.9297C9.4886 11.1381 9.9913 11.2461 10.5001 11.2461C11.0088 11.2461 11.5115 11.1381 11.9735 10.9297L18.0429 8.1875ZM11.9735 15.9297L18.0429 13.1875L20.1672 14.1484C20.5067 14.3008 20.7223 14.6328 20.7223 15C20.7223 15.3672 20.5067 15.6992 20.1672 15.8516L11.4384 19.7969C10.8435 20.0664 10.1567 20.0664 9.56169 19.7969L0.832867 15.8516C0.493457 15.6953 0.277832 15.3633 0.277832 15C0.277832 14.6367 0.493457 14.3008 0.832867 14.1484L2.95717 13.1875L9.02662 15.9297C9.4886 16.1381 9.9913 16.2461 10.5001 16.2461C11.0088 16.2461 11.5115 16.1381 11.9735 15.9297Z" fill="#6B7280"/>
</svg>
