<svg width="20" height="14" viewBox="0 0 20 14" fill="none" xmlns="http://www.w3.org/2000/svg">
<path d="M1.66634 4.6111C2.32938 4.6111 2.96527 4.34771 3.43411 3.87887C3.90295 3.41003 4.16634 2.77415 4.16634 2.1111M1.66634 9.6111C2.32938 9.6111 2.96527 9.8745 3.43411 10.3433C3.90295 10.8122 4.16634 11.4481 4.16634 12.1111M18.333 4.6111C17.67 4.6111 17.0341 4.34771 16.5652 3.87887C16.0964 3.41003 15.833 2.77415 15.833 2.1111M18.333 9.6111C17.67 9.6111 17.0341 9.8745 16.5652 10.3433C16.0964 10.8122 15.833 11.4481 15.833 12.1111M0.833008 1.27777H19.1663V12.9444H0.833008V1.27777ZM9.99967 10.4444C11.3805 10.4444 12.4997 8.95277 12.4997 7.1111C12.4997 5.26944 11.3805 3.77777 9.99967 3.77777C8.61884 3.77777 7.49967 5.26944 7.49967 7.1111C7.49967 8.95277 8.61884 10.4444 9.99967 10.4444Z" stroke="#6B7280" stroke-width="1.66667"/>
</svg>
