<svg width="31" height="27" viewBox="0 0 31 27" fill="none" xmlns="http://www.w3.org/2000/svg">
<g filter="url(#filter0_d_300_1521)">
<path d="M5.5 23.25C5.14583 23.25 4.84917 23.13 4.61 22.89C4.37083 22.65 4.25083 22.3533 4.25 22V18.9688C4.25 18.6354 4.3125 18.3175 4.4375 18.015C4.5625 17.7125 4.73958 17.4471 4.96875 17.2188L20.75 1.46875C21 1.23958 21.2763 1.0625 21.5788 0.9375C21.8813 0.8125 22.1987 0.75 22.5312 0.75C22.8638 0.75 23.1867 0.8125 23.5 0.9375C23.8133 1.0625 24.0842 1.25 24.3125 1.5L26.0312 3.25C26.2812 3.47917 26.4633 3.75 26.5775 4.0625C26.6917 4.375 26.7492 4.6875 26.75 5C26.75 5.33333 26.6925 5.65125 26.5775 5.95375C26.4625 6.25625 26.2804 6.53208 26.0312 6.78125L10.2812 22.5312C10.0521 22.7604 9.78625 22.9375 9.48375 23.0625C9.18125 23.1875 8.86375 23.25 8.53125 23.25H5.5ZM22.5 6.75L24.25 5L22.5 3.25L20.75 5L22.5 6.75Z" fill="#6B7280"/>
</g>
<defs>
<filter id="filter0_d_300_1521" x="0.25" y="0.75" width="30.5" height="30.5" filterUnits="userSpaceOnUse" color-interpolation-filters="sRGB">
<feFlood flood-opacity="0" result="BackgroundImageFix"/>
<feColorMatrix in="SourceAlpha" type="matrix" values="0 0 0 0 0 0 0 0 0 0 0 0 0 0 0 0 0 0 127 0" result="hardAlpha"/>
<feOffset dy="4"/>
<feGaussianBlur stdDeviation="2"/>
<feComposite in2="hardAlpha" operator="out"/>
<feColorMatrix type="matrix" values="0 0 0 0 0 0 0 0 0 0 0 0 0 0 0 0 0 0 0.25 0"/>
<feBlend mode="normal" in2="BackgroundImageFix" result="effect1_dropShadow_300_1521"/>
<feBlend mode="normal" in="SourceGraphic" in2="effect1_dropShadow_300_1521" result="shape"/>
</filter>
</defs>
</svg>
