<svg width="26" height="26" viewBox="0 0 26 26" fill="none" xmlns="http://www.w3.org/2000/svg">
<path d="M23.3127 10.5C23.3127 10.2948 23.2723 10.0916 23.1938 9.90206C23.1152 9.71249 23.0002 9.54024 22.8551 9.39515C22.71 9.25006 22.5377 9.13496 22.3481 9.05644C22.1586 8.97792 21.9554 8.9375 21.7502 8.9375C21.545 8.9375 21.3418 8.97792 21.1523 9.05644C20.9627 9.13496 20.7904 9.25006 20.6453 9.39515C20.5003 9.54024 20.3852 9.71249 20.3066 9.90206C20.2281 10.0916 20.1877 10.2948 20.1877 10.5H23.3127ZM5.81271 10.5C5.81271 10.0856 5.64809 9.68817 5.35506 9.39515C5.06204 9.10212 4.66461 8.9375 4.25021 8.9375C3.83581 8.9375 3.43838 9.10212 3.14535 9.39515C2.85233 9.68817 2.68771 10.0856 2.68771 10.5H5.81271ZM23.1452 14.105C23.4383 14.3981 23.8358 14.5627 24.2502 14.5627C24.6647 14.5627 25.0621 14.3981 25.3552 14.105C25.6483 13.8119 25.8129 13.4145 25.8129 13C25.8129 12.5855 25.6483 12.1881 25.3552 11.895L23.1452 14.105ZM13.0002 1.75L14.1052 0.645001C13.9601 0.499866 13.7878 0.384736 13.5982 0.306188C13.4086 0.227639 13.2054 0.18721 13.0002 0.18721C12.795 0.18721 12.5918 0.227639 12.4022 0.306188C12.2126 0.384736 12.0403 0.499866 11.8952 0.645001L13.0002 1.75ZM0.645206 11.895C0.352142 12.1881 0.1875 12.5855 0.1875 13C0.1875 13.4145 0.352142 13.8119 0.645206 14.105C0.93827 14.3981 1.33575 14.5627 1.75021 14.5627C2.16466 14.5627 2.56214 14.3981 2.85521 14.105L0.645206 11.895ZM6.75021 25.8125H19.2502V22.6875H6.75021V25.8125ZM23.3127 21.75V10.5H20.1877V21.75H23.3127ZM5.81271 21.75V10.5H2.68771V21.75H5.81271ZM25.3552 11.895L14.1052 0.645001L11.8952 2.855L23.1452 14.105L25.3552 11.895ZM11.8952 0.645001L0.645206 11.895L2.85521 14.105L14.1052 2.855L11.8952 0.645001ZM19.2502 25.8125C20.3276 25.8125 21.361 25.3845 22.1228 24.6226C22.8847 23.8608 23.3127 22.8274 23.3127 21.75H20.1877C20.1877 21.9986 20.0889 22.2371 19.9131 22.4129C19.7373 22.5887 19.4988 22.6875 19.2502 22.6875V25.8125ZM6.75021 22.6875C6.50157 22.6875 6.26311 22.5887 6.08729 22.4129C5.91148 22.2371 5.81271 21.9986 5.81271 21.75H2.68771C2.68771 22.8274 3.11572 23.8608 3.87758 24.6226C4.63945 25.3845 5.67276 25.8125 6.75021 25.8125V22.6875Z" fill="#111827"/>
</svg>
