<svg width="20" height="20" viewBox="0 0 20 20" fill="none" xmlns="http://www.w3.org/2000/svg">
<path d="M14.5 15.5V17.5C14.5 17.6333 14.55 17.75 14.65 17.85C14.75 17.95 14.8667 18 15 18C15.1333 18 15.25 17.95 15.35 17.85C15.45 17.75 15.5 17.6333 15.5 17.5V15.5H17.5C17.6333 15.5 17.75 15.45 17.85 15.35C17.95 15.25 18 15.1333 18 15C18 14.8667 17.95 14.75 17.85 14.65C17.75 14.55 17.6333 14.5 17.5 14.5H15.5V12.5C15.5 12.3667 15.45 12.25 15.35 12.15C15.25 12.05 15.1333 12 15 12C14.8667 12 14.75 12.05 14.65 12.15C14.55 12.25 14.5 12.3667 14.5 12.5V14.5H12.5C12.3667 14.5 12.25 14.55 12.15 14.65C12.05 14.75 12 14.8667 12 15C12 15.1333 12.05 15.25 12.15 15.35C12.25 15.45 12.3667 15.5 12.5 15.5H14.5ZM15 20C13.6167 20 12.4377 19.5123 11.463 18.537C10.4883 17.5617 10.0007 16.3827 10 15C9.99933 13.6173 10.487 12.4383 11.463 11.463C12.439 10.4877 13.618 10 15 10C16.382 10 17.5613 10.4877 18.538 11.463C19.5147 12.4383 20.002 13.6173 20 15C19.998 16.3827 19.5103 17.562 18.537 18.538C17.5637 19.514 16.3847 20.0013 15 20ZM5 6H13C13.2833 6 13.521 5.904 13.713 5.712C13.905 5.52 14.0007 5.28267 14 5C13.9993 4.71733 13.9033 4.48 13.712 4.288C13.5207 4.096 13.2833 4 13 4H5C4.71667 4 4.47933 4.096 4.288 4.288C4.09667 4.48 4.00067 4.71733 4 5C3.99933 5.28267 4.09533 5.52033 4.288 5.713C4.48067 5.90567 4.718 6.00133 5 6ZM2 18C1.45 18 0.979333 17.8043 0.588 17.413C0.196667 17.0217 0.000666667 16.5507 0 16V2C0 1.45 0.196 0.979333 0.588 0.588C0.98 0.196667 1.45067 0.000666667 2 0H16C16.55 0 17.021 0.196 17.413 0.588C17.805 0.98 18.0007 1.45067 18 2V7.45C18 7.75 17.875 7.98333 17.625 8.15C17.375 8.31667 17.1083 8.35 16.825 8.25C16.5417 8.16667 16.2457 8.104 15.937 8.062C15.6283 8.02 15.316 7.99933 15 8C14.8167 8 14.6457 8.00433 14.487 8.013C14.3283 8.02167 14.166 8.04233 14 8.075C13.85 8.04167 13.6833 8.021 13.5 8.013C13.3167 8.005 13.15 8.00067 13 8H5C4.71667 8 4.47933 8.096 4.288 8.288C4.09667 8.48 4.00067 8.71733 4 9C3.99933 9.28267 4.09533 9.52033 4.288 9.713C4.48067 9.90567 4.718 10.0013 5 10H10.125C9.825 10.2833 9.55433 10.5917 9.313 10.925C9.07167 11.2583 8.859 11.6167 8.675 12H5C4.71667 12 4.47933 12.096 4.288 12.288C4.09667 12.48 4.00067 12.7173 4 13C3.99933 13.2827 4.09533 13.5203 4.288 13.713C4.48067 13.9057 4.718 14.0013 5 14H8.075C8.04167 14.1667 8.021 14.3293 8.013 14.488C8.005 14.6467 8.00067 14.8173 8 15C8 15.3333 8.01667 15.65 8.05 15.95C8.08333 16.25 8.14167 16.5417 8.225 16.825C8.30833 17.1083 8.26667 17.375 8.1 17.625C7.93333 17.875 7.70833 18 7.425 18H2Z" fill="#2563EB"/>
</svg>
