<svg width="22" height="26" viewBox="0 0 22 26" fill="none" xmlns="http://www.w3.org/2000/svg">
<path d="M14.7502 20.5V21.4375C14.7502 22.4321 14.3551 23.3859 13.6518 24.0891C12.9486 24.7924 11.9947 25.1875 11.0002 25.1875C10.0056 25.1875 9.05178 24.7924 8.34852 24.0891C7.64526 23.3859 7.25017 22.4321 7.25017 21.4375V20.5M21.0595 18.5916C19.5549 16.75 18.4926 15.8125 18.4926 10.7354C18.4926 6.08594 16.1183 4.42949 14.1642 3.625C13.9047 3.51836 13.6603 3.27344 13.5812 3.00684C13.2384 1.84023 12.2775 0.8125 11.0002 0.8125C9.72282 0.8125 8.7613 1.84082 8.42204 3.00801C8.34294 3.27754 8.09861 3.51836 7.83903 3.625C5.88259 4.43066 3.51071 6.08125 3.51071 10.7354C3.50778 15.8125 2.44548 16.75 0.940793 18.5916C0.317355 19.3545 0.863449 20.5 1.95388 20.5H20.0523C21.1369 20.5 21.6795 19.351 21.0595 18.5916Z" stroke="#111827" stroke-linecap="round" stroke-linejoin="round"/>
</svg>
