<svg width="24" height="24" viewBox="0 0 24 24" fill="none" xmlns="http://www.w3.org/2000/svg">
<g clip-path="url(#clip0_300_1500)">
<path d="M22.26 3.35C22.1661 3.24023 22.0495 3.15211 21.9183 3.09169C21.7872 3.03127 21.6444 2.99999 21.5 3H12.5C12.358 3.00018 12.2177 3.03059 12.0884 3.08922C11.959 3.14784 11.8437 3.23333 11.75 3.34C11.656 3.447 11.586 3.57283 11.5446 3.70907C11.5033 3.84531 11.4914 3.98882 11.51 4.13L12.51 11.63C12.5271 11.7613 12.5698 11.888 12.6359 12.0028C12.7019 12.1176 12.7899 12.2182 12.8948 12.299C12.9997 12.3798 13.1195 12.4391 13.2474 12.4736C13.3753 12.5081 13.5087 12.5171 13.64 12.5C13.7713 12.4829 13.898 12.4402 14.0128 12.3741C14.1276 12.3081 14.2282 12.2201 14.309 12.1152C14.3898 12.0103 14.4491 11.8904 14.4836 11.7626C14.5181 11.6347 14.5271 11.5013 14.51 11.37L13.7 5.28C13.6943 5.24584 13.6968 5.21083 13.7072 5.17782C13.7177 5.1448 13.7357 5.11471 13.76 5.09C13.781 5.06452 13.8068 5.04344 13.836 5.028C13.8652 5.01255 13.8971 5.00303 13.93 5H20C20.0366 4.99795 20.0732 5.00512 20.1064 5.02084C20.1396 5.03656 20.1683 5.06033 20.19 5.09C20.2144 5.11666 20.2325 5.1485 20.2429 5.18313C20.2533 5.21777 20.2557 5.2543 20.25 5.29L19.16 11.86C19.1162 12.1252 19.1796 12.397 19.3362 12.6154C19.4928 12.8339 19.7298 12.9812 19.995 13.025C20.1263 13.0467 20.2606 13.0423 20.3902 13.012C20.5198 12.9818 20.6422 12.9263 20.7504 12.8488C20.9689 12.6922 21.1162 12.4552 21.16 12.19L22.5 4.19C22.5261 4.04095 22.5181 3.88791 22.4766 3.74241C22.435 3.5969 22.3609 3.46273 22.26 3.35Z" fill="#2563EB"/>
<path d="M19 14H13C12.9535 14.0016 12.9075 13.9892 12.8682 13.9642C12.829 13.9392 12.7982 13.9028 12.78 13.86L11.82 12C11.7837 11.9243 11.729 11.859 11.6608 11.8101C11.5927 11.7612 11.5133 11.7302 11.43 11.72C11.3459 11.7103 11.2608 11.7217 11.1823 11.7531C11.1037 11.7845 11.0342 11.835 10.98 11.9L9.1 14.21C8.94533 14.3739 8.73479 14.4738 8.51 14.49H7.51C7.44265 14.4886 7.37572 14.5009 7.31323 14.526C7.25074 14.5512 7.19398 14.5887 7.14634 14.6363C7.09871 14.6839 7.0612 14.7407 7.03605 14.8032C7.0109 14.8657 6.99864 14.9326 7 15V21C6.99837 21.0779 7.01572 21.155 7.05057 21.2247C7.08541 21.2944 7.1367 21.3545 7.2 21.4C9.5 23.13 11.28 24 12.5 24H18.05C18.4854 24.0736 18.9324 23.975 19.2964 23.7249C19.6603 23.4748 19.9127 23.0928 20 22.66C20.4872 20.2973 20.8212 17.9057 21 15.5C21 14.75 20.31 14 19 14ZM4.83 13.5H1.75C1.6837 13.5 1.62011 13.5263 1.57322 13.5732C1.52634 13.6201 1.5 13.6837 1.5 13.75V22.75C1.5 22.8163 1.52634 22.8799 1.57322 22.9267C1.62011 22.9736 1.6837 23 1.75 23H4.83C4.91363 23.0098 4.99839 23.0019 5.07878 22.9768C5.15916 22.9517 5.23336 22.91 5.29656 22.8544C5.35975 22.7987 5.41053 22.7304 5.44558 22.6538C5.48063 22.5772 5.49917 22.4942 5.5 22.41V14.09C5.49917 14.0058 5.48063 13.9227 5.44558 13.8461C5.41053 13.7695 5.35975 13.7012 5.29656 13.6456C5.23336 13.5899 5.15916 13.5482 5.07878 13.5231C4.99839 13.498 4.91363 13.4901 4.83 13.5ZM15.5 8.99996C15.5 9.39779 15.658 9.77932 15.9393 10.0606C16.2206 10.3419 16.6022 10.5 17 10.5C17.3978 10.5 17.7794 10.3419 18.0607 10.0606C18.342 9.77932 18.5 9.39779 18.5 8.99996C18.5 8.60214 18.342 8.2206 18.0607 7.9393C17.7794 7.658 17.3978 7.49996 17 7.49996C16.6022 7.49996 16.2206 7.658 15.9393 7.9393C15.658 8.2206 15.5 8.60214 15.5 8.99996ZM10 11C10.1459 11.0018 10.2905 10.9718 10.4236 10.9118C10.5567 10.8519 10.675 10.7635 10.7703 10.653C10.8656 10.5424 10.9355 10.4124 10.9752 10.2719C11.0149 10.1315 11.0234 9.98403 11 9.83996L9.73 2.28996C9.70538 2.22557 9.70538 2.15435 9.73 2.08996C9.76051 2.04928 9.8027 2.01887 9.85094 2.00279C9.89918 1.98671 9.95118 1.98572 10 1.99996H18C18.2652 1.99996 18.5196 1.8946 18.7071 1.70707C18.8946 1.51953 19 1.26518 19 0.999961C19 0.734745 18.8946 0.480391 18.7071 0.292854C18.5196 0.105318 18.2652 -3.88977e-05 18 -3.88977e-05H8.5C8.35406 -0.00192115 8.20948 0.0281649 8.0764 0.0881068C7.94333 0.148049 7.82499 0.236393 7.72969 0.346938C7.6344 0.457483 7.56445 0.587548 7.52477 0.728002C7.48509 0.868455 7.47664 1.01589 7.5 1.15996L9 10.16C9.03833 10.3966 9.16039 10.6116 9.34394 10.7657C9.52748 10.9199 9.76031 11.003 10 11Z" fill="#2563EB"/>
</g>
<defs>
<clipPath id="clip0_300_1500">
<rect width="24" height="24" fill="white"/>
</clipPath>
</defs>
</svg>
