<svg width="28" height="26" viewBox="0 0 28 26" fill="none" xmlns="http://www.w3.org/2000/svg">
<path d="M5.7245 26C5.2075 26 4.7255 25.828 4.2785 25.484C3.8315 25.14 3.5355 24.7205 3.3905 24.2255C2.7655 22.0105 2.2675 20.1725 1.8965 18.7115C1.5245 17.2515 1.2345 16.017 1.0265 15.008C0.8175 13.999 0.6775 13.136 0.6065 12.419C0.5355 11.702 0.5 10.979 0.5 10.25C0.5 8.368 1.1545 6.7725 2.4635 5.4635C3.7735 4.1545 5.369 3.5 7.25 3.5H15.5C16.175 2.6 16.969 1.875 17.882 1.325C18.795 0.775 19.751 0.5 20.75 0.5C20.958 0.5 21.135 0.5735 21.281 0.7205C21.427 0.8675 21.5 1.046 21.5 1.256C21.5 1.306 21.491 1.353 21.473 1.397C21.455 1.441 21.44 1.497 21.428 1.565C21.308 1.878 21.19 2.2395 21.074 2.6495C20.958 3.0595 20.8365 3.6285 20.7095 4.3565L25.103 8.75H26.288C26.632 8.75 26.92 8.866 27.152 9.098C27.384 9.33 27.5 9.618 27.5 9.962V15.731C27.5 16.003 27.4255 16.2435 27.2765 16.4525C27.1275 16.6615 26.9195 16.8095 26.6525 16.8965L23.5505 17.9165L21.647 24.266C21.485 24.793 21.1915 25.214 20.7665 25.529C20.3405 25.843 19.854 26 19.307 26H17.9225C17.2565 26 16.6865 25.7625 16.2125 25.2875C15.7385 24.8125 15.501 24.243 15.5 23.579V23H9.5V23.5775C9.5 24.2435 9.2625 24.8135 8.7875 25.2875C8.3125 25.7615 7.7425 25.999 7.0775 26H5.7245ZM20 12.155C20.31 12.155 20.58 12.04 20.81 11.81C21.04 11.58 21.155 11.31 21.155 11C21.155 10.69 21.04 10.42 20.81 10.19C20.58 9.96 20.31 9.845 20 9.845C19.69 9.845 19.42 9.96 19.19 10.19C18.96 10.42 18.845 10.69 18.845 11C18.845 11.31 18.96 11.58 19.19 11.81C19.42 12.04 19.69 12.155 20 12.155ZM14.75 8.75C14.963 8.75 15.141 8.678 15.284 8.534C15.427 8.39 15.499 8.2115 15.5 7.9985C15.501 7.7855 15.429 7.6075 15.284 7.4645C15.139 7.3215 14.961 7.25 14.75 7.25H8.75C8.537 7.25 8.359 7.322 8.216 7.466C8.073 7.61 8.001 7.7885 8 8.0015C7.999 8.2145 8.071 8.3925 8.216 8.5355C8.361 8.6785 8.539 8.75 8.75 8.75H14.75Z" fill="#2563EB"/>
</svg>
